# xmcd CD database file
# Copyright (C) 1993-1998 Ti Kan
#
# Track frame offsets:
#  150
#  25186
#  42845
#  65706
#  90955
#
# Disc length: 1577 seconds
#
# Revision: 1
# Processed by: cddbd v1.4b41PL1 Copyright (c) Steve Scherf et al.
# Submitted via: KiC 2.1 - (C) 1996-1998 Alwin Hoogerdijk
#
DISCID=35062705
DTITLE=Ben Harper - The Will To Live [CD2]
DYEAR=1900
DGENRE=
TTITLE0=Gold To me
TTITLE1=Another Lonely Day
TTITLE2=Faded
TTITLE3=Ground On Down
TTITLE4=Voodoo Chile
EXTD=
EXTT0=
EXTT1=
EXTT2=
EXTT3=
EXTT4=
PLAYORDER=
